<?xml version="1.0" encoding="UTF-8"?>
<!-- REGENERATED -->
<!-- Our House — Auth + Tenancy Wireframes
     Import into Figma: File → Place Image / drag & drop (vectors stay editable)
     Open in browser:   just double-click the file
     Edit in draw.io:   Extras → Edit Diagram → paste this XML
-->
<svg xmlns="http://www.w3.org/2000/svg"
     viewBox="0 0 1800 980" width="1800" height="980"
     font-family="'Inter','Helvetica Neue',Arial,sans-serif">

  <defs>
    <filter id="shadow" x="-8%" y="-4%" width="116%" height="116%">
      <feDropShadow dx="0" dy="6" stdDeviation="14" flood-color="#00000014"/>
    </filter>
    <!-- Per-screen clip paths so content never bleeds outside the rounded frame -->
    <clipPath id="c1"><rect x="30"   y="55" width="390" height="844" rx="22"/></clipPath>
    <clipPath id="c2"><rect x="480"  y="55" width="390" height="844" rx="22"/></clipPath>
    <clipPath id="c3"><rect x="930"  y="55" width="390" height="844" rx="22"/></clipPath>
    <clipPath id="c4"><rect x="1380" y="55" width="390" height="844" rx="22"/></clipPath>
    <!-- Arrow marker -->
    <marker id="arr" markerWidth="10" markerHeight="7" refX="9" refY="3.5" orient="auto">
      <polygon points="0 0,10 3.5,0 7" fill="#3b82f6"/>
    </marker>
    <marker id="arrRed" markerWidth="10" markerHeight="7" refX="9" refY="3.5" orient="auto">
      <polygon points="0 0,10 3.5,0 7" fill="#ef4444"/>
    </marker>
  </defs>

  <!-- Canvas background -->
  <rect width="1800" height="980" fill="#dde3ec"/>

  <!-- ── Screen labels ───────────────────────────────────────────────────── -->
  <text x="225"  y="36" text-anchor="middle" font-size="15" font-weight="700" fill="#1e293b">🔐  Login / Sign Up</text>
  <text x="675"  y="36" text-anchor="middle" font-size="15" font-weight="700" fill="#1e293b">🏠  Household Setup  <tspan font-size="10" fill="#dc2626" font-weight="600">⚠ auth required</tspan></text>
  <text x="1125" y="36" text-anchor="middle" font-size="15" font-weight="700" fill="#1e293b">📋  Dashboard</text>
  <text x="1575" y="36" text-anchor="middle" font-size="15" font-weight="700" fill="#1e293b">⚙️  Settings  <tspan font-size="11" fill="#3b82f6" font-weight="400">(updated)</tspan></text>

  <!-- ════════════════════════════════════════════════════════════════════════
       SCREEN 1 — LOGIN
       ════════════════════════════════════════════════════════════════════════ -->
  <rect x="30" y="55" width="390" height="844" rx="22" fill="#f8fafc" stroke="#c4cdd6" stroke-width="1.5" filter="url(#shadow)"/>
  <g clip-path="url(#c1)">
    <!-- status bar -->
    <rect x="30" y="55" width="390" height="44" fill="#1e293b"/>
    <text x="56"  y="82" font-size="12" font-weight="600" fill="white">9:41</text>
    <text x="358" y="82" font-size="11" fill="white">▲ WiFi 🔋</text>

    <!-- body -->
    <rect x="30" y="99" width="390" height="800" fill="#f8fafc"/>

    <!-- logo -->
    <circle cx="225" cy="192" r="46" fill="#eff6ff" stroke="#bfdbfe" stroke-width="2"/>
    <text x="225" y="207" text-anchor="middle" font-size="38">🏠</text>
    <text x="225" y="268" text-anchor="middle" font-size="24" font-weight="700" fill="#1e293b">Our House</text>
    <text x="225" y="292" text-anchor="middle" font-size="13" fill="#94a3b8">Sign in to sync with your household</text>

    <!-- tab switcher -->
    <rect x="75" y="316" width="300" height="38" rx="10" fill="#e2e8f0"/>
    <rect x="77" y="318" width="148" height="34" rx="8" fill="#3b82f6"/>
    <text x="151" y="340" text-anchor="middle" font-size="13" font-weight="600" fill="white">Sign In</text>
    <text x="300" y="340" text-anchor="middle" font-size="13" fill="#64748b">Create Account</text>

    <!-- email -->
    <text x="75" y="374" font-size="10" font-weight="700" fill="#64748b" letter-spacing="0.8">EMAIL</text>
    <rect x="75" y="382" width="300" height="42" rx="8" fill="white" stroke="#d1d5db" stroke-width="1.5"/>
    <text x="92" y="408" font-size="13" fill="#9ca3af">you@example.com</text>

    <!-- password -->
    <text x="75" y="442" font-size="10" font-weight="700" fill="#64748b" letter-spacing="0.8">PASSWORD</text>
    <rect x="75" y="450" width="300" height="42" rx="8" fill="white" stroke="#d1d5db" stroke-width="1.5"/>
    <text x="92" y="477" font-size="15" fill="#9ca3af" letter-spacing="5">••••••••</text>

    <!-- CTA -->
    <rect x="75" y="508" width="300" height="48" rx="10" fill="#3b82f6"/>
    <text x="225" y="537" text-anchor="middle" font-size="15" font-weight="600" fill="white">Sign In</text>

    <!-- error state example -->
    <rect x="75" y="570" width="300" height="38" rx="8" fill="#fef2f2" stroke="#fca5a5" stroke-width="1.5" opacity="0.65"/>
    <text x="225" y="593" text-anchor="middle" font-size="12" fill="#dc2626" opacity="0.65">⚠  Invalid email or password</text>
    <text x="225" y="622" text-anchor="middle" font-size="10" fill="#94a3b8" font-style="italic">(error state — shown only on failure)</text>

    <!-- "new here?" -->
    <text x="225" y="665" text-anchor="middle" font-size="12" fill="#64748b">Don't have an account?  <tspan fill="#3b82f6" font-weight="600">Create one →</tspan></text>
  </g>
  <!-- frame border overlay -->
  <rect x="30" y="55" width="390" height="844" rx="22" fill="none" stroke="#c4cdd6" stroke-width="1.5"/>


  <!-- ════════════════════════════════════════════════════════════════════════
       SCREEN 2 — HOUSEHOLD SETUP  (new screen)
       ════════════════════════════════════════════════════════════════════════ -->
  <rect x="480" y="55" width="390" height="844" rx="22" fill="#f8fafc" stroke="#c4cdd6" stroke-width="1.5" filter="url(#shadow)"/>
  <g clip-path="url(#c2)">
    <!-- status bar -->
    <rect x="480" y="55" width="390" height="44" fill="#1e293b"/>
    <text x="506" y="82" font-size="12" font-weight="600" fill="white">9:41</text>
    <text x="808" y="82" font-size="11" fill="white">▲ WiFi 🔋</text>

    <!-- body -->
    <rect x="480" y="99" width="390" height="800" fill="#f8fafc"/>

    <!-- header -->
    <rect x="480" y="99" width="390" height="56" fill="white"/>
    <line x1="480" y1="155" x2="870" y2="155" stroke="#e2e8f0" stroke-width="1"/>
    <text x="500" y="133" font-size="16" font-weight="700" fill="#1e293b">Our House</text>
    <!-- user avatar -->
    <circle cx="848" cy="127" r="18" fill="#eff6ff" stroke="#bfdbfe" stroke-width="1.5"/>
    <text x="848" y="133" text-anchor="middle" font-size="14">👤</text>
    <text x="848" y="145" text-anchor="middle" font-size="8" fill="#64748b">me@…</text>

    <!-- welcome heading -->
    <text x="675" y="200" text-anchor="middle" font-size="21" font-weight="700" fill="#1e293b">Almost there! 👋</text>
    <text x="675" y="222" text-anchor="middle" font-size="13" fill="#64748b">You're not part of a household yet.</text>
    <text x="675" y="240" text-anchor="middle" font-size="13" fill="#64748b">Create one or join an existing one.</text>

    <!-- Card 1 — Create -->
    <rect x="510" y="262" width="330" height="170" rx="12" fill="white" stroke="#bfdbfe" stroke-width="2"/>
    <!-- card accent top -->
    <rect x="510" y="262" width="330" height="46" rx="12" fill="#eff6ff"/>
    <rect x="510" y="286" width="330" height="22" fill="#eff6ff"/>
    <text x="530" y="292" font-size="14" font-weight="600" fill="#1d4ed8">🏠  Create a New Household</text>

    <text x="530" y="325" font-size="10" font-weight="700" fill="#64748b" letter-spacing="0.8">HOUSEHOLD NAME</text>
    <rect x="530" y="333" width="290" height="38" rx="7" fill="#f9fafb" stroke="#d1d5db" stroke-width="1.5"/>
    <text x="546" y="357" font-size="13" fill="#9ca3af">e.g. "The Smith House"</text>

    <rect x="530" y="382" width="290" height="40" rx="8" fill="#3b82f6"/>
    <text x="675" y="407" text-anchor="middle" font-size="14" font-weight="600" fill="white">Create Household</text>

    <!-- OR divider -->
    <line x1="510" y1="456" x2="638" y2="456" stroke="#d1d5db" stroke-width="1"/>
    <text x="675" y="460" text-anchor="middle" font-size="12" fill="#94a3b8">OR</text>
    <line x1="712" y1="456" x2="840" y2="456" stroke="#d1d5db" stroke-width="1"/>

    <!-- Card 2 — Join -->
    <rect x="510" y="474" width="330" height="158" rx="12" fill="white" stroke="#e2e8f0" stroke-width="1.5"/>
    <text x="530" y="504" font-size="14" font-weight="600" fill="#374151">🔑  Join with Invite Code</text>

    <text x="530" y="530" font-size="10" font-weight="700" fill="#64748b" letter-spacing="0.8">6-CHARACTER CODE</text>
    <rect x="530" y="538" width="290" height="38" rx="7" fill="#f9fafb" stroke="#d1d5db" stroke-width="1.5"/>
    <text x="675" y="562" text-anchor="middle" font-size="16" font-weight="700" fill="#9ca3af" letter-spacing="10">_ _ _ _ _ _</text>

    <rect x="530" y="588" width="290" height="40" rx="8" fill="white" stroke="#3b82f6" stroke-width="1.5"/>
    <text x="675" y="613" text-anchor="middle" font-size="14" font-weight="600" fill="#3b82f6">Join Household</text>

    <!-- hint -->
    <rect x="510" y="648" width="330" height="52" rx="8" fill="#fefce8" stroke="#fde68a" stroke-width="1.5"/>
    <text x="527" y="670" font-size="11" fill="#92400e">💡 Ask your household admin for the</text>
    <text x="527" y="688" font-size="11" fill="#92400e">invite code found in their Settings page.</text>
  </g>
  <rect x="480" y="55" width="390" height="844" rx="22" fill="none" stroke="#c4cdd6" stroke-width="1.5"/>


  <!-- ════════════════════════════════════════════════════════════════════════
       SCREEN 3 — DASHBOARD  (existing, shown for flow context)
       ════════════════════════════════════════════════════════════════════════ -->
  <rect x="930" y="55" width="390" height="844" rx="22" fill="#f8fafc" stroke="#c4cdd6" stroke-width="1.5" filter="url(#shadow)"/>
  <g clip-path="url(#c3)">
    <!-- status bar -->
    <rect x="930" y="55" width="390" height="44" fill="#1e293b"/>
    <text x="956" y="82" font-size="12" font-weight="600" fill="white">9:41</text>
    <text x="1258" y="82" font-size="11" fill="white">▲ WiFi 🔋</text>

    <!-- body -->
    <rect x="930" y="99" width="390" height="657" fill="#f8fafc"/>

    <!-- top header -->
    <rect x="930" y="99" width="390" height="56" fill="white"/>
    <line x1="930" y1="155" x2="1320" y2="155" stroke="#e2e8f0" stroke-width="1"/>
    <text x="950" y="133" font-size="16" font-weight="700" fill="#1e293b">Our House</text>
    <!-- sync indicator -->
    <circle cx="1297" cy="127" r="7" fill="#22c55e"/>
    <text x="1285" y="148" font-size="9" fill="#94a3b8">synced</text>

    <!-- stats row -->
    <rect x="942" y="165" width="112" height="68" rx="10" fill="white" stroke="#e2e8f0" stroke-width="1.5"/>
    <text x="998" y="193" text-anchor="middle" font-size="22" font-weight="700" fill="#f59e0b">5</text>
    <text x="998" y="210" text-anchor="middle" font-size="10" fill="#64748b">Pending</text>
    <text x="998" y="224" text-anchor="middle" font-size="9" fill="#9ca3af">tasks</text>

    <rect x="1064" y="165" width="112" height="68" rx="10" fill="white" stroke="#e2e8f0" stroke-width="1.5"/>
    <text x="1120" y="193" text-anchor="middle" font-size="22" font-weight="700" fill="#3b82f6">2</text>
    <text x="1120" y="210" text-anchor="middle" font-size="10" fill="#64748b">In Progress</text>
    <text x="1120" y="224" text-anchor="middle" font-size="9" fill="#9ca3af">tasks</text>

    <rect x="1186" y="165" width="112" height="68" rx="10" fill="white" stroke="#e2e8f0" stroke-width="1.5"/>
    <text x="1242" y="193" text-anchor="middle" font-size="22" font-weight="700" fill="#22c55e">12</text>
    <text x="1242" y="210" text-anchor="middle" font-size="10" fill="#64748b">Completed</text>
    <text x="1242" y="224" text-anchor="middle" font-size="9" fill="#9ca3af">this week</text>

    <!-- chores header -->
    <text x="950" y="256" font-size="15" font-weight="700" fill="#1e293b">Active Chores</text>
    <rect x="1244" y="242" width="68" height="28" rx="6" fill="#3b82f6"/>
    <text x="1278" y="261" text-anchor="middle" font-size="12" font-weight="600" fill="white">+ Add</text>

    <!-- chore card 1 (urgent) -->
    <rect x="942" y="272" width="356" height="78" rx="10" fill="white" stroke="#e2e8f0" stroke-width="1.5"/>
    <rect x="942" y="272" width="5" height="78" rx="3" fill="#ef4444"/>
    <text x="960" y="296" font-size="14" font-weight="600" fill="#1e293b">Clean the Kitchen</text>
    <rect x="960" y="303" width="46" height="17" rx="4" fill="#fef2f2"/>
    <text x="983" y="315" text-anchor="middle" font-size="9" font-weight="700" fill="#ef4444">URGENT</text>
    <rect x="1012" y="303" width="34" height="17" rx="4" fill="#f0fdf4"/>
    <text x="1029" y="315" text-anchor="middle" font-size="9" fill="#16a34a">Easy</text>
    <text x="960" y="340" font-size="11" fill="#94a3b8">👤 Alex  ·  Due today</text>
    <circle cx="1278" cy="311" r="16" fill="#f0fdf4" stroke="#86efac" stroke-width="1.5"/>
    <text x="1278" y="317" text-anchor="middle" font-size="14" fill="#16a34a">✓</text>

    <!-- chore card 2 (soon) -->
    <rect x="942" y="360" width="356" height="78" rx="10" fill="white" stroke="#e2e8f0" stroke-width="1.5"/>
    <rect x="942" y="360" width="5" height="78" rx="3" fill="#f59e0b"/>
    <text x="960" y="384" font-size="14" font-weight="600" fill="#1e293b">Take out the trash</text>
    <rect x="960" y="391" width="36" height="17" rx="4" fill="#fffbeb"/>
    <text x="978" y="403" text-anchor="middle" font-size="9" font-weight="700" fill="#d97706">SOON</text>
    <rect x="1002" y="391" width="44" height="17" rx="4" fill="#fef3c7"/>
    <text x="1024" y="403" text-anchor="middle" font-size="9" fill="#b45309">Medium</text>
    <text x="960" y="428" font-size="11" fill="#94a3b8">👤 Sam  ·  Due in 2 days</text>
    <circle cx="1278" cy="399" r="16" fill="#f0fdf4" stroke="#86efac" stroke-width="1.5"/>
    <text x="1278" y="405" text-anchor="middle" font-size="14" fill="#16a34a">✓</text>

    <!-- chore card 3 (later) -->
    <rect x="942" y="448" width="356" height="78" rx="10" fill="white" stroke="#e2e8f0" stroke-width="1.5"/>
    <rect x="942" y="448" width="5" height="78" rx="3" fill="#8b5cf6"/>
    <text x="960" y="472" font-size="14" font-weight="600" fill="#1e293b">Vacuum living room</text>
    <rect x="960" y="479" width="40" height="17" rx="4" fill="#f5f3ff"/>
    <text x="980" y="491" text-anchor="middle" font-size="9" font-weight="700" fill="#7c3aed">LATER</text>
    <rect x="1006" y="479" width="32" height="17" rx="4" fill="#fef2f2"/>
    <text x="1022" y="491" text-anchor="middle" font-size="9" fill="#dc2626">Hard</text>
    <text x="960" y="516" font-size="11" fill="#94a3b8">👤 Jordan  ·  Weekly</text>
    <circle cx="1278" cy="487" r="16" fill="#f0fdf4" stroke="#86efac" stroke-width="1.5"/>
    <text x="1278" y="493" text-anchor="middle" font-size="14" fill="#16a34a">✓</text>

    <!-- scroll hint -->
    <text x="1125" y="556" text-anchor="middle" font-size="11" fill="#cbd5e0">↓  more chores below</text>

    <!-- bottom nav -->
    <rect x="930" y="756" width="390" height="64" fill="white"/>
    <line x1="930" y1="756" x2="1320" y2="756" stroke="#e2e8f0" stroke-width="1"/>
    <!-- active: Dashboard -->
    <rect x="964" y="760" width="62" height="56" rx="6" fill="#eff6ff"/>
    <text x="995" y="785" text-anchor="middle" font-size="20">⊞</text>
    <text x="995" y="800" text-anchor="middle" font-size="9" font-weight="700" fill="#3b82f6">Dashboard</text>
    <circle cx="995" cy="758" r="3" fill="#3b82f6"/>

    <text x="1077" y="785" text-anchor="middle" font-size="20">▦</text>
    <text x="1077" y="800" text-anchor="middle" font-size="9" fill="#94a3b8">Board</text>

    <text x="1165" y="785" text-anchor="middle" font-size="20">👥</text>
    <text x="1165" y="800" text-anchor="middle" font-size="9" fill="#94a3b8">People</text>

    <text x="1247" y="785" text-anchor="middle" font-size="20">⚙</text>
    <text x="1247" y="800" text-anchor="middle" font-size="9" fill="#94a3b8">Settings</text>
  </g>
  <rect x="930" y="55" width="390" height="844" rx="22" fill="none" stroke="#c4cdd6" stroke-width="1.5"/>


  <!-- ════════════════════════════════════════════════════════════════════════
       SCREEN 4 — SETTINGS  (updated with auth + household info)
       ════════════════════════════════════════════════════════════════════════ -->
  <rect x="1380" y="55" width="390" height="844" rx="22" fill="#f8fafc" stroke="#c4cdd6" stroke-width="1.5" filter="url(#shadow)"/>
  <g clip-path="url(#c4)">
    <!-- status bar -->
    <rect x="1380" y="55" width="390" height="44" fill="#1e293b"/>
    <text x="1406" y="82" font-size="12" font-weight="600" fill="white">9:41</text>
    <text x="1708" y="82" font-size="11" fill="white">▲ WiFi 🔋</text>

    <!-- body -->
    <rect x="1380" y="99" width="390" height="657" fill="#f8fafc"/>

    <!-- top header -->
    <rect x="1380" y="99" width="390" height="56" fill="white"/>
    <line x1="1380" y1="155" x2="1770" y2="155" stroke="#e2e8f0" stroke-width="1"/>
    <text x="1400" y="133" font-size="16" font-weight="700" fill="#1e293b">Our House</text>

    <!-- main card -->
    <rect x="1394" y="166" width="362" height="572" rx="12" fill="white" stroke="#e2e8f0" stroke-width="1.5"/>
    <text x="1414" y="196" font-size="17" font-weight="700" fill="#1e293b">Application Settings</text>
    <line x1="1414" y1="210" x2="1746" y2="210" stroke="#f1f5f9" stroke-width="1"/>

    <!-- ── NEW: Household section ── -->
    <rect x="1414" y="220" width="330" height="146" rx="10" fill="#f0fdf4" stroke="#86efac" stroke-width="1.5"/>
    <!-- section title -->
    <text x="1434" y="244" font-size="13" font-weight="600" fill="#15803d">🏠  Household</text>
    <!-- household name -->
    <text x="1434" y="266" font-size="10" font-weight="700" fill="#64748b" letter-spacing="0.8">HOUSEHOLD NAME</text>
    <text x="1434" y="284" font-size="14" font-weight="600" fill="#1e293b">The Smith House</text>
    <!-- invite code row -->
    <text x="1434" y="307" font-size="10" font-weight="700" fill="#64748b" letter-spacing="0.8">INVITE CODE</text>
    <rect x="1434" y="313" width="116" height="28" rx="6" fill="white" stroke="#86efac" stroke-width="1.5"/>
    <text x="1492" y="332" text-anchor="middle" font-size="14" font-weight="700" fill="#1e293b" letter-spacing="3">XK29BF</text>
    <rect x="1558" y="313" width="66" height="28" rx="6" fill="#3b82f6"/>
    <text x="1591" y="332" text-anchor="middle" font-size="12" font-weight="600" fill="white">Copy</text>
    <!-- role badge -->
    <rect x="1634" y="313" width="56" height="28" rx="14" fill="#dcfce7"/>
    <text x="1662" y="332" text-anchor="middle" font-size="11" font-weight="600" fill="#16a34a">Admin</text>
    <!-- logged in as -->
    <text x="1434" y="356" font-size="11" fill="#64748b">Signed in as <tspan font-weight="600" fill="#1e293b">member@example.com</tspan></text>

    <line x1="1414" y1="376" x2="1746" y2="376" stroke="#f1f5f9" stroke-width="1"/>

    <!-- ── AI Toggle ── -->
    <rect x="1414" y="384" width="330" height="72" rx="10" fill="#f8fafc" stroke="#e2e8f0" stroke-width="1.5"/>
    <circle cx="1436" cy="420" r="14" fill="#f5f3ff"/>
    <text x="1436" y="426" text-anchor="middle" font-size="16">✨</text>
    <text x="1460" y="414" font-size="13" font-weight="600" fill="#1e293b">AI Capabilities</text>
    <text x="1460" y="432" font-size="11" fill="#94a3b8">AI-powered chore suggestions</text>
    <!-- toggle ON -->
    <rect x="1700" y="409" width="40" height="22" rx="11" fill="#3b82f6"/>
    <circle cx="1729" cy="420" r="9" fill="white"/>

    <!-- ── Firebase section (collapsed) ── -->
    <rect x="1414" y="466" width="330" height="50" rx="10" fill="#f8fafc" stroke="#e2e8f0" stroke-width="1.5"/>
    <text x="1434" y="496" font-size="13" fill="#374151">🗄  Database (Firebase)</text>
    <circle cx="1708" cy="491" r="5" fill="#22c55e"/>
    <text x="1722" y="496" font-size="13" fill="#94a3b8">›</text>

    <line x1="1414" y1="528" x2="1746" y2="528" stroke="#f1f5f9" stroke-width="1"/>

    <!-- ── Sign Out button (NEW) ── -->
    <rect x="1414" y="536" width="330" height="48" rx="10" fill="#fff1f2" stroke="#fecaca" stroke-width="1.5"/>
    <text x="1579" y="565" text-anchor="middle" font-size="14" font-weight="600" fill="#dc2626">🚪  Sign Out</text>

    <!-- version line -->
    <text x="1579" y="628" text-anchor="middle" font-size="10" fill="#94a3b8">Our House v2.2.0  ·  The Smith House</text>

    <!-- bottom nav -->
    <rect x="1380" y="756" width="390" height="64" fill="white"/>
    <line x1="1380" y1="756" x2="1770" y2="756" stroke="#e2e8f0" stroke-width="1"/>

    <text x="1458" y="785" text-anchor="middle" font-size="20">⊞</text>
    <text x="1458" y="800" text-anchor="middle" font-size="9" fill="#94a3b8">Dashboard</text>

    <text x="1530" y="785" text-anchor="middle" font-size="20">▦</text>
    <text x="1530" y="800" text-anchor="middle" font-size="9" fill="#94a3b8">Board</text>

    <text x="1618" y="785" text-anchor="middle" font-size="20">👥</text>
    <text x="1618" y="800" text-anchor="middle" font-size="9" fill="#94a3b8">People</text>

    <!-- active: Settings -->
    <rect x="1585" y="760" width="62" height="56" rx="6" fill="#eff6ff"/>
    <text x="1692" y="785" text-anchor="middle" font-size="20">⚙</text>
    <text x="1692" y="800" text-anchor="middle" font-size="9" font-weight="700" fill="#3b82f6">Settings</text>
    <circle cx="1692" cy="758" r="3" fill="#3b82f6"/>
  </g>
  <rect x="1380" y="55" width="390" height="844" rx="22" fill="none" stroke="#c4cdd6" stroke-width="1.5"/>


  <!-- ════════════════════════════════════════════════════════════════════════
       FLOW ARROWS (below screens)
       ════════════════════════════════════════════════════════════════════════ -->
  <!-- Login → Household Setup -->
  <line x1="430" y1="920" x2="472" y2="920" stroke="#3b82f6" stroke-width="2" marker-end="url(#arr)"/>
  <text x="225" y="914" text-anchor="middle" font-size="11" font-weight="600" fill="#3b82f6">sign up / sign in</text>

  <!-- Household Setup → Dashboard -->
  <line x1="880" y1="920" x2="922" y2="920" stroke="#3b82f6" stroke-width="2" marker-end="url(#arr)"/>
  <text x="675" y="914" text-anchor="middle" font-size="11" font-weight="600" fill="#3b82f6">create or join household</text>

  <!-- Dashboard → Settings -->
  <line x1="1330" y1="920" x2="1372" y2="920" stroke="#3b82f6" stroke-width="2" marker-end="url(#arr)"/>
  <text x="1125" y="914" text-anchor="middle" font-size="11" font-weight="600" fill="#3b82f6">tap Settings tab</text>

  <!-- Sign Out loop (Settings → Login), red dashed arc -->
  <path d="M 1579 938 Q 1579 962 900 962 Q 225 962 225 935"
        stroke="#ef4444" stroke-width="1.5" fill="none" stroke-dasharray="5,3"
        marker-end="url(#arrRed)"/>
  <text x="900" y="975" text-anchor="middle" font-size="10" fill="#ef4444">sign out  →  back to Login</text>

  <!-- Already-authed shortcut (Login → Dashboard) -->
  <path d="M 225 910 Q 225 896 680 896 Q 1125 896 1125 910"
        stroke="#22c55e" stroke-width="1.5" fill="none" stroke-dasharray="4,3"
        marker-end="url(#arr)"/>
  <text x="675" y="892" text-anchor="middle" font-size="10" fill="#22c55e">already authenticated + has household  →  skip to Dashboard</text>

</svg>
